<svg xmlns="http://www.w3.org/2000/svg" width="37" height="42" viewBox="0 0 37 42">
    <defs>
        <filter id="prefix__a">
            <feColorMatrix in="SourceGraphic" values="0 0 0 0 0.217471 0 0 0 0 0.587066 0 0 0 0 0.757275 0 0 0 1.000000 0"/>
        </filter>
    </defs>
    <g fill="none" fill-rule="evenodd" filter="url(#prefix__a)" transform="translate(-153)">
        <path fill="#000" fill-rule="nonzero" d="M163.593 2.111l2.113 17.489h11.586l2.115-17.487c.033-.273.122-.56.281-.905.163-.351-.065-.738-.52-.879-.703-.218-1.43-.329-2.16-.329h-10.943c-.772 0-1.525.118-2.239.35-.446.146-.668.526-.507.874.152.331.24.614.274.887zM185.375 19.6c.24 0 .47.035.705.055l2.057-17.013c.08-.654-.207-1.288-.808-1.787-.655-.543-1.61-.854-2.63-.854-1.81 0-3.296.964-3.451 2.242L179.15 19.6h6.225zm.536 1.44c-.177-.015-.353-.04-.536-.04h-27.75c-.183 0-.359.025-.537.04-2.295.205-4.088 1.67-4.088 3.46v16.8c0 .386.414.7.925.7h3.7c.51 0 .925-.314.925-.7V30.8h25.9v10.5c0 .386.414.7.925.7h3.7c.51 0 .925-.314.925-.7V24.5c0-1.79-1.793-3.255-4.088-3.46zm-1.461 8.36h-25.9V28h25.9v1.4zm-26.825-9.8h6.225l-2.1-17.36C161.595.963 160.11 0 158.29 0c-1.011 0-1.966.312-2.62.854-.6.498-.887 1.133-.809 1.785l2.057 17.014c.237-.018.466-.053.707-.053z"/>
    </g>
</svg>
