<svg xmlns="http://www.w3.org/2000/svg" width="40" height="40" viewBox="0 0 40 40">
    <defs>
        <filter id="prefix__a">
            <feColorMatrix in="SourceGraphic" values="0 0 0 0 0.250980 0 0 0 0 0.596078 0 0 0 0 0.392157 0 0 0 1.000000 0"/>
        </filter>
    </defs>
    <g fill="none" fill-rule="evenodd">
        <g filter="url(#prefix__a)">
            <path fill="#00A2EC" d="M40 20c0 1.641-3.492 2.803-3.898 4.316-.418 1.567 2.014 4.316 1.22 5.687-.805 1.391-4.408.654-5.537 1.782-1.13 1.13-.392 4.732-1.782 5.538-1.371.793-4.12-1.639-5.687-1.22C22.803 36.507 21.64 40 20 40s-2.803-3.492-4.316-3.898c-1.567-.418-4.316 2.014-5.687 1.22-1.391-.805-.654-4.408-1.782-5.537-1.13-1.13-4.732-.392-5.538-1.782-.793-1.371 1.639-4.12 1.22-5.687C3.493 22.803 0 21.64 0 20s3.492-2.803 3.898-4.316c.418-1.567-2.014-4.316-1.22-5.687.805-1.391 4.408-.654 5.537-1.782 1.13-1.13.392-4.732 1.782-5.538 1.371-.793 4.12 1.639 5.687 1.22C17.197 3.493 18.36 0 20 0s2.803 3.492 4.316 3.898c1.567.418 4.316-2.014 5.687-1.22 1.391.805.654 4.408 1.782 5.537 1.13 1.13 4.732.392 5.538 1.782.793 1.371-1.639 4.12-1.22 5.687C36.507 17.197 40 18.36 40 20z"/>
        </g>
        <path stroke="#FFF" stroke-linecap="round" stroke-linejoin="round" stroke-width="3" d="M10.667 18.667L17.272 26.667 29.333 13.333"/>
    </g>
</svg>
