<svg xmlns="http://www.w3.org/2000/svg" width="58" height="51" viewBox="0 0 58 51">
    <defs>
        <filter id="6ueoa5hf2a">
            <feColorMatrix in="SourceGraphic" values="0 0 0 0 0.098039 0 0 0 0 0.098039 0 0 0 0 0.098039 0 0 0 1.000000 0"/>
        </filter>
    </defs>
    <g fill="none" fill-rule="evenodd" filter="url(#6ueoa5hf2a)" transform="translate(-603 -621)">
        <g fill="#000" fill-rule="nonzero">
            <g>
                <path d="M56.067 49.038c-.58 0-.967-.384-.967-.961v-8.654H2.9v8.654c0 .577-.387.961-.967.961s-.966-.384-.966-.961v-9.615c0-.577.386-.962.966-.962h54.134c.58 0 .966.385.966.962v9.615c0 .577-.386.961-.966.961z" transform="translate(603 621) translate(0 .522)"/>
                <path d="M55.68 47.115H2.513c-.58 0-.966-.384-.966-.961s.386-.962.966-.962H55.68c.58 0 .967.385.967.962s-.58.961-.967.961zM56.067 39.423c-.387 0-.774-.192-.967-.577l-9.667-21.154c-.193-.577 0-.961.387-1.346.58-.192.967 0 1.353.385l7.734 17.115v-5c0-.577.386-.961.966-.961s.967.384.967.961v9.616c0 .384-.387.769-.773.961.193 0 0 0 0 0zM1.933 39.423H1.74c-.387-.192-.773-.577-.773-.961v-9.616c0-.577.386-.961.966-.961s.967.384.967.961v5.192l7.733-17.115c.194-.385.58-.577.967-.577h3.867c.58 0 .966.385.966.962s-.386.961-.966.961H12.18L2.9 38.846c-.193.385-.58.577-.967.577z" transform="translate(603 621) translate(0 .522)"/>
                <path d="M46.4 18.27h-4.06c-.58 0-.967-.385-.967-.962s.387-.962.967-.962h3.093V6.731c0-2.116-1.74-3.846-3.866-3.846H16.433c-2.126 0-3.866 1.73-3.866 3.846v10.577c0 .577-.387.961-.967.961s-.967-.384-.967-.961V6.73c0-3.27 2.514-5.77 5.8-5.77h25.134c3.286 0 5.8 2.5 5.8 5.77v10.577c0 .577-.387.961-.967.961z" transform="translate(603 621) translate(0 .522)"/>
                <path d="M24.747 24.038H17.98c-.967 0-1.933-.384-2.513-1.153-.58-.77-.967-1.731-.967-2.693l.967-6.73c.193-1.731 1.74-2.885 3.286-2.885h5.8c1.934 0 3.48 1.538 3.48 3.461v6.731c0 1.731-1.546 3.27-3.286 3.27zM18.753 12.5c-.58 0-1.353.577-1.353 1.346l-.967 6.73c0 .386 0 .77.387 1.155.387.384.58.577 1.16.577h6.767c.773 0 1.546-.577 1.546-1.539v-6.73c0-.77-.58-1.539-1.546-1.539h-5.994zM40.213 24.038h-6.766c-1.934 0-3.48-1.538-3.48-3.461v-6.539c0-1.923 1.546-3.461 3.48-3.461h5.8c1.74 0 3.093 1.346 3.286 2.885l.967 6.73c.193.962-.193 1.923-.773 2.693-.774.769-1.547 1.153-2.514 1.153zM33.447 12.5c-.774 0-1.547.577-1.547 1.538v6.731c0 .77.58 1.539 1.547 1.539h6.766c.387 0 .774-.193 1.16-.577.387-.385.387-.77.387-1.154l-1.16-6.73c0-.77-.773-1.347-1.353-1.347h-5.8z" transform="translate(603 621) translate(0 .522)"/>
            </g>
            <path d="M31 19.522h-4c-.6 0-1-.4-1-1s.4-1 1-1h4c.6 0 1 .4 1 1s-.4 1-1 1z" transform="translate(603 621)"/>
        </g>
    </g>
</svg>
