<svg xmlns="http://www.w3.org/2000/svg" width="50" height="48" viewBox="0 0 50 48">
    <path fill="#191919" d="M46.018 46V25.01c0-3.859-3.14-6.998-7.002-6.998h-1V9.876c1.72-.44 3-1.96 3-3.779S38.656 0 37.015 0c-1.64 0-4.002 4.278-4.002 6.097 0 1.82 1.28 3.34 3.001 3.779v8.136H26.01V9.876c1.721-.44 3.002-1.96 3.002-3.779S26.65 0 25.01 0c-1.64 0-4.002 4.278-4.002 6.097 0 1.82 1.28 3.34 3.002 3.779v8.136H14.006V9.876c1.72-.44 3-1.96 3-3.779 0-1.799-2.36-6.077-4-6.077-1.641 0-4.002 4.278-4.002 6.097 0 1.82 1.28 3.34 3 3.779v8.116h-1c-3.861 0-7.002 3.14-7.002 6.998V46H0v2h50v-2h-3.982zM35 6.042C35 4.99 36.28 2.784 37 2c.72.784 2 3.01 2 4.041C39 7.134 38.1 8 37 8s-2-.887-2-1.959zm-12 0C23 4.99 24.28 2.784 25 2c.72.784 2 3.01 2 4.041C27 7.134 26.1 8 25 8s-2-.887-2-1.959zm-12 0C11 4.99 12.28 2.784 13 2c.72.784 2 3.01 2 4.041C15 7.113 14.1 8 13 8s-2-.887-2-1.959zM11 20h28c2.76 0 5 2.24 5 5v1.1c-1.54.32-2.42 1.38-3.16 2.26-.88 1.04-1.42 1.64-2.56 1.64-1.14 0-1.68-.6-2.56-1.64-.88-1.06-1.96-2.36-4.1-2.36-2.14 0-3.22 1.3-4.1 2.36C26.66 29.4 26.1 30 24.96 30c-1.14 0-1.68-.6-2.56-1.64-.88-1.06-1.96-2.36-4.1-2.36-2.14 0-3.22 1.3-4.1 2.36-.86 1.04-1.4 1.64-2.54 1.64-1.14 0-1.68-.6-2.56-1.64-.72-.88-1.6-1.9-3.1-2.24V25c0-2.76 2.24-5 5-5zM6 46V28.24c.54.26.98.72 1.56 1.4.88 1.06 1.96 2.36 4.1 2.36 2.14 0 3.22-1.3 4.1-2.36.86-1.04 1.4-1.64 2.54-1.64 1.14 0 1.68.6 2.56 1.64.88 1.06 1.96 2.36 4.1 2.36 2.14 0 3.22-1.3 4.1-2.36.88-1.04 1.42-1.64 2.56-1.64 1.14 0 1.68.6 2.56 1.64.88 1.06 1.96 2.36 4.1 2.36 2.14 0 3.22-1.3 4.1-2.36.6-.72 1.04-1.2 1.62-1.44V46H6z"/>
</svg>
