<svg xmlns="http://www.w3.org/2000/svg" width="51" height="51" viewBox="0 0 51 51">
    <defs>
        <filter id="prefix__a">
            <feColorMatrix in="SourceGraphic" values="0 0 0 0 0.607892 0 0 0 0 0.607803 0 0 0 0 0.607923 0 0 0 1.000000 0"/>
        </filter>
    </defs>
    <g fill="none" fill-rule="evenodd" filter="url(#prefix__a)" transform="translate(-823 -1163)">
        <path fill="#143BAB" d="M840.76 1187.23c2.234 4.39 5.834 7.975 10.225 10.225l3.413-3.414c.419-.419 1.04-.558 1.583-.372 1.737.574 3.615.884 5.539.884.853 0 1.551.698 1.551 1.552v5.415c0 .853-.698 1.551-1.551 1.551-14.57 0-26.377-11.807-26.377-26.377 0-.853.698-1.551 1.551-1.551h5.431c.853 0 1.552.698 1.552 1.551 0 1.94.31 3.802.884 5.54.17.543.047 1.148-.388 1.582l-3.413 3.414z"/>
    </g>
</svg>
