<?xml version="1.0" encoding="UTF-8"?>
<svg width="42px" height="41px" viewBox="0 0 42 41" version="1.1" xmlns="http://www.w3.org/2000/svg" xmlns:xlink="http://www.w3.org/1999/xlink">
    <title>CD24E461-963B-4860-BA89-BF6AF63B2B0A</title>
    <defs>
        <filter id="filter-1">
            <feColorMatrix in="SourceGraphic" type="matrix" values="0 0 0 0 0.215686 0 0 0 0 0.588235 0 0 0 0 0.756863 0 0 0 1.000000 0"></feColorMatrix>
        </filter>
    </defs>
    <g id="Page-1" stroke="none" stroke-width="1" fill="none" fill-rule="evenodd">
        <g id="Safari-Trip-Details" transform="translate(-608.000000, -718.000000)">
            <g id="Group-13" transform="translate(244.000000, 714.000000)">
                <g id="dives" transform="translate(201.000000, 4.000000)" filter="url(#filter-1)">
                    <g transform="translate(164.000000, 0.000000)">
                        <path d="M18.6206897,32.3538231 L20,32.3538231 C29.6951724,32.3538231 36.5217391,31.3043478 36.5517241,14.4227886 L36.5517241,4.04797601" id="Stroke-130" stroke="#143BAB" stroke-width="1.5" stroke-linecap="round" stroke-linejoin="round"></path>
                        <path d="M14.4827586,30.9745127 L17.2413793,30.9745127 C18.0027586,30.9745127 18.6206897,31.5924438 18.6206897,32.3538231 L18.6206897,32.3538231 C18.6206897,33.1152024 18.0027586,33.7331334 17.2413793,33.7331334 L14.4827586,33.7331334 C13.7213793,33.7331334 13.1034483,33.1152024 13.1034483,32.3538231 L13.1034483,32.3538231 C13.1034483,31.5924438 13.7213793,30.9745127 14.4827586,30.9745127 L14.4827586,30.9745127 Z" id="Stroke-132" stroke="#143BAB" stroke-width="1.5" fill="#143BAB" stroke-linecap="round" stroke-linejoin="round"></path>
                        <polygon id="Stroke-134" stroke="#143BAB" stroke-width="1.5" stroke-linecap="round" stroke-linejoin="round" points="33.7931034 1.28935532 36.5517241 4.04797601 39.3103448 1.28935532"></polygon>
                        <path d="M1,10.4347826 L11.9202988,10.4347826 C12.8838853,10.4347826 13.813968,10.7883994 14.5341615,11.4285714 C15.1717628,11.9953282 16.132585,11.9953282 16.7701863,11.4285714 C17.4903798,10.7883994 18.4204626,10.4347826 19.384049,10.4347826 L30.3043478,10.4347826 C30.8566326,10.4347826 31.3043478,10.8824979 31.3043478,11.4347826 L31.3043478,22.3478261 C31.3043478,23.4523956 30.4089173,24.3478261 29.3043478,24.3478261 L21.1180124,24.3478261 C20.569158,24.3478261 20.1242236,23.9028917 20.1242236,23.3540373 C20.1242236,22.8051829 19.6792892,22.3602484 19.1304348,22.3602484 L12.173913,22.3602484 C11.6250586,22.3602484 11.1801242,22.8051829 11.1801242,23.3540373 C11.1801242,23.9028917 10.7351898,24.3478261 10.1863354,24.3478261 L2,24.3478261 C0.8954305,24.3478261 -3.0881846e-16,23.4523956 0,22.3478261 L0,11.4347826 C-6.76353751e-17,10.8824979 0.44771525,10.4347826 1,10.4347826 Z" id="Path" stroke="#143BAB" stroke-width="1.5" fill="#143BAB"></path>
                        <path d="M27.826087,10.4347826 C26.0280466,5.40815633 22.6086957,1.73913043 15.6521739,1.73913043 C8.69565217,1.73913043 5.51223974,6.07522628 3.47826087,10.4347826" id="Oval" stroke="#143BAB" stroke-width="1.5"></path>
                        <path d="M27.826087,40 C26.0280466,33.6664509 26.0869565,24.3478261 15.6521739,24.3478261 C5.2173913,24.3478261 5.51223974,34.506959 3.47826087,40" id="Oval" stroke="#143BAB" stroke-width="1.5" transform="translate(15.652174, 32.173913) scale(1, -1) translate(-15.652174, -32.173913) "></path>
                    </g>
                </g>
            </g>
        </g>
    </g>
</svg>