<svg xmlns="http://www.w3.org/2000/svg" width="53" height="51" viewBox="0 0 53 51">
    <path fill="#191919" stroke="#FFF" stroke-linejoin="round" stroke-width="1.6" d="M20.744 28.889h1.516c1.827 2.444 5.47 5.818 9.367 5.818 3.735-.03 7.17-2.127 9.013-5.5 1.842-3.374 1.811-7.51-.082-10.854-1.893-3.342-5.36-5.383-9.095-5.353H11.544C5.632 13 1 17.388 1 23.39 1 29.536 5.755 35 11.596 35c4.156 0 7.413-3.667 9.148-6.111zM11.091 31C7.107 30.817 3.978 27.544 4 23.583c.015-1.81.775-3.537 2.103-4.779 1.328-1.241 3.11-1.89 4.932-1.795h19.93c1.822-.095 3.604.554 4.932 1.795 1.328 1.242 2.088 2.968 2.103 4.78C38 27.466 35.036 31 31.13 31c-3.504 0-6.534-3.463-7.094-5.802h-6.072c-.56 2.34-3.37 5.802-6.873 5.802zM51.104 6.952C46.328 1.478 45.594 1 43.97 1c-.915.002-1.792.38-2.438 1.053-.646.672-1.007 1.583-1.004 2.532v4.78c-.003.95.358 1.86 1.004 2.533.646.673 1.523 1.052 2.438 1.053v20.317c0 .06 0 13.147-10.325 13.147-7.543 0-9.265-4.876-9.646-7.171h1.614c.955 0 1.729-.803 1.729-1.793 0-.99-.774-1.792-1.73-1.792H18.73c-.955 0-1.729.802-1.729 1.792s.774 1.793 1.73 1.793h1.798C21.015 43.487 24.156 50 33.642 50c13.765 0 13.777-16.505 13.765-16.732V12.951h1.153c1.366-.001 2.601-.84 3.147-2.139.55-1.298.314-2.809-.603-3.86h0zM44 9V4c.457 0 5 5 5 5h-5zM31.243 29c.97 0 1.757-.783 1.757-1.749 0-.966-.787-1.749-1.757-1.749-2.122 0-1.75-2.064-1.837-2.32-.311-.91-1.304-1.398-2.219-1.09-.914.31-1.404 1.299-1.094 2.21.581 1.748 1.395 4.698 5.15 4.698zM11.24 25.487c-2.124 0-1.752-2.073-1.839-2.33-.324-.897-1.307-1.37-2.21-1.064-.904.307-1.396 1.279-1.107 2.187.586 1.757 1.397 4.72 5.16 4.72.971-.001 1.758-.788 1.757-1.758-.001-.97-.79-1.756-1.76-1.755z"/>
</svg>
