<?xml version="1.0" encoding="UTF-8"?>
<svg width="32px" height="45px" viewBox="0 0 32 45" version="1.1" xmlns="http://www.w3.org/2000/svg" xmlns:xlink="http://www.w3.org/1999/xlink">
    <title>A1342B6D-0CC4-4DBA-B81D-5DC4D3BE2283</title>
    <g id="Page-1" stroke="none" stroke-width="1" fill="none" fill-rule="evenodd">
        <g id="Dive-Centers-results" transform="translate(-856.000000, -690.000000)">
            <g id="pin_off" transform="translate(856.000000, 690.000000)">
                <path d="M16,0 C7.15428571,0 0,7.0425 0,15.75 C0,27.5625 16,45 16,45 C16,45 32,27.5625 32,15.75 C32,7.0425 24.8457143,0 16,0 Z" id="pinicon-copy-2" fill="#666666"></path>
                <path d="M10.9147613,22 C7.6532709,22 5,19.3491311 5,16.0909986 C5,12.8328662 7.6532709,10.1819972 10.9147613,10.1819972 C12.7916515,10.1819972 14.3480527,10.8494417 15.2980543,12.0612415 C15.7008041,12.5752337 15.6103537,13.3179497 15.0958605,13.7203073 C14.5811853,14.1228466 13.8379273,14.0321207 13.4351775,13.5184921 C12.805119,12.7143225 11.7166209,12.5455978 10.9147613,12.5455978 C8.95797624,12.5455978 7.3659045,14.1361191 7.3659045,16.0909986 C7.3659045,18.0458781 8.95797624,19.6363994 10.9147613,19.6363994 C12.357235,19.6363994 13.645197,18.775867 14.1962708,17.444069 C14.4550644,16.818624 15.2585619,14.8084726 15.4190794,14.2117544 C16.0849906,11.7319738 18.4150425,10 21.0852387,10 C24.3467291,10 27,12.6508689 27,15.9090014 C27,19.1671338 24.3467291,21.8180028 21.0852387,21.8180028 C19.2083485,21.8180028 17.6519473,21.1507401 16.7021277,19.9389403 C16.2991959,19.4249481 16.3896463,18.6822321 16.9039575,18.2798745 C17.4184507,17.8771534 18.1622547,17.9678793 18.5646405,18.4816897 C19.194881,19.2856775 20.2833791,19.4544022 21.0852387,19.4544022 C23.0420238,19.4544022 24.6340955,17.8638809 24.6340955,15.9090014 C24.6340955,13.9541219 23.0420238,12.3636006 21.0852387,12.3636006 C19.4835214,12.3636006 18.0930975,13.3755852 17.7041792,14.8246542 C17.462311,15.7240951 16.3934681,18.3213285 16.3827306,18.3471463 C15.4645776,20.5662035 13.3181562,22 10.9147613,22" id="Fill-28" fill="#FFFFFF"></path>
            </g>
        </g>
    </g>
</svg>