<?xml version="1.0" encoding="UTF-8"?>
<svg width="44px" height="62px" viewBox="0 0 44 62" version="1.1" xmlns="http://www.w3.org/2000/svg" xmlns:xlink="http://www.w3.org/1999/xlink">
    <title>185394B5-3D60-4074-8819-4E0093F0A91E</title>
    <g id="Page-1" stroke="none" stroke-width="1" fill="none" fill-rule="evenodd">
        <g id="Dive-Centers-results" transform="translate(-716.000000, -509.000000)">
            <g id="pin_on" transform="translate(716.000000, 509.000000)">
                <path d="M22,0 C9.83714286,0 0,9.703 0,21.7 C0,37.975 22,62 22,62 C22,62 44,37.975 44,21.7 C44,9.703 34.1628571,0 22,0 Z" id="pinicon-copy-2" fill="#043D6A"></path>
                <g id="Group-Copy-2" transform="translate(7.000000, 14.000000)" fill="#FFFFFF">
                    <path d="M8.26141873,16.3971631 C3.70594534,16.3971631 0,12.7749356 0,8.32292483 C0,3.87091406 3.70594534,0.248686539 8.26141873,0.248686539 C10.8829575,0.248686539 13.0568546,1.16070281 14.3837655,2.81654275 C14.9463046,3.51887727 14.8199684,4.53374691 14.1013521,5.08354043 C13.3824816,5.63358238 12.344339,5.50961177 11.7817999,4.80777414 C10.9017682,3.70893241 9.38141291,3.47838186 8.26141873,3.47838186 C5.52828722,3.47838186 3.30456749,5.65171837 3.30456749,8.32292483 C3.30456749,10.9941313 5.52828722,13.1674678 8.26141873,13.1674678 C10.2761881,13.1674678 12.0751438,11.9916103 12.8448538,10.1718012 C13.2063227,9.31717411 14.3286046,6.57044246 14.5528068,5.75506862 C15.4829155,2.36662135 18.7374061,0 22.4669918,0 C27.0224652,0 30.7284105,3.62222752 30.7284105,8.07423829 C30.7284105,12.5262491 27.0224652,16.1484766 22.4669918,16.1484766 C19.845453,16.1484766 17.671556,15.2367087 16.3448992,13.5808688 C15.7821059,12.8785343 15.9084421,11.8636646 16.6268042,11.3138711 C17.3454206,10.7635807 18.3843257,10.8875513 18.9463564,11.5896374 C19.8266424,12.6882307 21.3469976,12.9187813 22.4669918,12.9187813 C25.2001233,12.9187813 27.423843,10.7454448 27.423843,8.07423829 C27.423843,5.40303183 25.2001233,3.22969532 22.4669918,3.22969532 C20.2297996,3.22969532 18.2877307,4.61250179 17.7445106,6.59255345 C17.4066822,7.82157674 15.9137803,11.370515 15.8987826,11.4057932 C14.6163562,14.4379803 11.6183509,16.3971631 8.26141873,16.3971631" id="Fill-28"></path>
                </g>
            </g>
        </g>
    </g>
</svg>