<svg xmlns="http://www.w3.org/2000/svg" width="50" height="50" viewBox="0 0 50 50">
    <defs>
        <filter id="35b8m21g4a">
            <feColorMatrix in="SourceGraphic" values="0 0 0 0 0.098039 0 0 0 0 0.098039 0 0 0 0 0.098039 0 0 0 1.000000 0"/>
        </filter>
    </defs>
    <g fill="none" fill-rule="evenodd" filter="url(#35b8m21g4a)" transform="translate(-1222 -622)">
        <path fill="#494B4C" fill-rule="nonzero" d="M1269.283 672h-44.566c-.72 0-1.411-.286-1.921-.796s-.796-1.2-.796-1.921v-44.566c0-1.5 1.217-2.717 2.717-2.717h44.566c.72 0 1.411.286 1.921.796s.796 1.2.796 1.921v44.566c0 .72-.286 1.411-.796 1.921s-1.2.796-1.921.796zm-44.566-47.826c-.3 0-.543.243-.543.543v44.566c0 .3.243.543.543.543h44.566c.3 0 .543-.243.543-.543v-44.566c0-.3-.243-.543-.543-.543h-44.566zm16.848 41.304h-11.956c-.6 0-1.087-.486-1.087-1.087v-11.956h2.174v9.326l12.347-12.348 1.544 1.544-12.348 12.347h9.326v2.174zm9.522-21.043l-1.544-1.544 12.218-12.195h-9.326v-2.174h11.956c.6 0 1.087.486 1.087 1.087v11.956h-2.174v-9.326l-12.217 12.196z"/>
    </g>
</svg>
