<svg xmlns="http://www.w3.org/2000/svg" width="66" height="66" viewBox="0 0 66 66">
    <path d="M33.67 4.181h-2.34c-.859 0-1.665.334-2.272.942l-.016.015c-.609.617-.938 1.435-.926 2.302.013 1.045.836 1.906 1.868 1.995.251.67.889 1.15 1.639 1.175v1.756h-.292c-1.128 0-2.046.918-2.046 2.046v.816c-4.164 1.392-7.015 5.338-7.016 9.824v26.774c0 4.351 3.541 7.892 7.893 7.892h4.676c2.176 0 4.15-.885 5.578-2.314 1.43-1.43 2.314-3.402 2.314-5.578V24.934c0-4.67-3.155-8.743-7.673-9.906-.47-.12-.947.162-1.068.63-.12.47.162.947.63 1.068 3.743.964 6.357 4.34 6.357 8.208v2.631h-3.858c-.484 0-.877.393-.877.877s.393.877.877.877h3.858V48.61h-3.858c-.484 0-.877.393-.877.877 0 .485.393.877.877.877h3.858v1.462c0 1.64-.638 3.18-1.797 4.34-1.16 1.16-2.701 1.798-4.34 1.798h-4.677c-1.64 0-3.182-.639-4.34-1.798-1.16-1.16-1.799-2.7-1.799-4.34v-1.462h6.139c.242 0 .46-.098.62-.257.158-.158.256-.378.257-.62 0-.484-.393-.877-.877-.877h-6.139V29.32h6.138c.243 0 .462-.098.62-.257.16-.159.257-.378.257-.62 0-.485-.392-.877-.876-.877h-6.139v-2.513c0-3.886 2.57-7.281 6.262-8.294l1.4-.004c.24-.001.459-.099.617-.257.159-.16.257-.38.256-.623-.001-.484-.395-.876-.88-.874l-.64.002v-.59c0-.162.132-.293.293-.293h2.338c.117 0 .19.065.223.103.315.367.869.41 1.236.095.37-.315.41-.87.095-1.237-.237-.276-.54-.48-.875-.597h1.338v.292c0 .484.393.877.877.877s.877-.393.877-.877v-2.339c0-.484-.393-.876-.877-.876s-.877.392-.877.876v.293h-2.309v-.12c.75-.024 1.387-.505 1.639-1.174.494-.043.94-.263 1.273-.595.362-.361.588-.856.595-1.4.012-.867-.317-1.685-.926-2.302-.61-.617-1.422-.957-2.289-.957zm1.46 3.236c-.001.15-.133.272-.292.272h-.35c-.297 0-.576.116-.786.325-.21.21-.325.488-.325.784v-.232h-1.754v.232c0-.296-.116-.574-.325-.784-.21-.21-.49-.325-.786-.325h-.35c-.16 0-.29-.122-.293-.272-.005-.395.145-.766.421-1.047l.007-.007c.276-.276.643-.428 1.034-.428h2.338c.394 0 .764.155 1.04.435.277.28.427.652.421 1.047z"/>
</svg>
