<svg xmlns="http://www.w3.org/2000/svg" width="42" height="42" viewBox="0 0 42 42">
    <defs>
        <filter id="prefix__a">
            <feColorMatrix in="SourceGraphic" values="0 0 0 0 0.215686 0 0 0 0 0.588235 0 0 0 0 0.756863 0 0 0 1.000000 0"/>
        </filter>
    </defs>
    <g fill="none" fill-rule="evenodd" filter="url(#prefix__a)" transform="translate(-459 -712)">
        <path fill="#000" fill-rule="nonzero" d="M493.3 743.64l-6.86-1.68-.56-2.52c1.68-1.68 2.8-4.2 3.08-7.14.56 0 1.26-.14 1.4-1.26l.7-3.5c.14-.84-.14-1.68-.56-2.24-.28-.28-.56-.42-.84-.56v-4.06l.7-.7c1.12-1.26 2.1-2.66.56-4.9-1.12-1.96-3.5-3.08-6.44-3.08h-.56c-1.54 0-4.06 0-6.16 1.4-6.02.14-8.96 2.38-8.96 7 0 .84.56 2.8.84 3.92-.42.14-.7.42-.98.7-.42.56-.7 1.26-.56 1.96l.42 3.5c.14 1.12.98 1.96 2.1 2.1.28 2.38 1.54 4.9 3.22 6.58l-.7 2.66-6.86 1.68c-4.34 1.12-7.28 5.04-7.28 9.52v.42c0 .28.28.56.7.56h40.6c.42 0 .7-.28.7-.7 0-4.34-3.36-8.68-7.7-9.66z"/>
    </g>
</svg>
