<svg xmlns="http://www.w3.org/2000/svg" width="51" height="51" viewBox="0 0 51 51">
    <defs>
        <filter id="prefix__a">
            <feColorMatrix in="SourceGraphic" values="0 0 0 0 0.607892 0 0 0 0 0.607803 0 0 0 0 0.607923 0 0 0 1.000000 0"/>
        </filter>
    </defs>
    <g fill="none" fill-rule="evenodd" filter="url(#prefix__a)" transform="translate(-1144 -1159)">
        <path fill="#143BAB" fill-rule="nonzero" stroke="#143BAB" stroke-width=".2" d="M1169.5 1167.5c1.56 0 3.066.202 4.516.606 1.45.404 2.805.974 4.067 1.71s2.41 1.621 3.445 2.656c1.035 1.035 1.92 2.183 2.656 3.445.736 1.262 1.306 2.618 1.71 4.067.404 1.45.606 2.955.606 4.516 0 1.56-.202 3.066-.606 4.516-.404 1.45-.974 2.805-1.71 4.067s-1.621 2.41-2.656 3.445c-1.035 1.035-2.183 1.92-3.445 2.656-1.262.736-2.618 1.306-4.067 1.71-1.45.404-2.955.606-4.516.606-1.56 0-3.066-.202-4.516-.606-1.45-.404-2.805-.974-4.067-1.71s-2.41-1.621-3.445-2.656c-1.035-1.035-1.92-2.183-2.656-3.445-.736-1.262-1.306-2.615-1.71-4.06-.404-1.443-.606-2.951-.606-4.523 0-1.56.202-3.066.606-4.516.404-1.45.974-2.805 1.71-4.067s1.621-2.41 2.656-3.445c1.035-1.035 2.183-1.92 3.445-2.656 1.262-.736 2.615-1.306 4.06-1.71 1.443-.404 2.951-.606 4.523-.606zm0 31.875c1.361 0 2.676-.177 3.943-.531 1.267-.354 2.451-.855 3.553-1.503 1.1-.647 2.105-1.425 3.013-2.332.907-.908 1.685-1.912 2.332-3.013.648-1.102 1.149-2.283 1.503-3.545.354-1.262.531-2.579.531-3.951 0-1.361-.177-2.676-.531-3.943-.354-1.267-.855-2.451-1.503-3.553-.647-1.1-1.425-2.105-2.332-3.013-.908-.907-1.912-1.685-3.013-2.332-1.102-.648-2.286-1.149-3.553-1.503-1.267-.354-2.582-.531-3.943-.531-1.361 0-2.676.177-3.943.531-1.267.354-2.451.855-3.553 1.503-1.1.647-2.105 1.425-3.013 2.332-.907.908-1.685 1.912-2.332 3.013-.648 1.102-1.149 2.286-1.503 3.553-.354 1.267-.531 2.582-.531 3.943 0 1.361.177 2.676.531 3.943.354 1.267.855 2.451 1.503 3.553.647 1.1 1.425 2.105 2.332 3.013.908.907 1.912 1.685 3.013 2.332 1.102.648 2.283 1.149 3.545 1.503 1.262.354 2.579.531 3.951.531zm9.911-14.61l.797-2.39h1.245l-1.411 4.25h-1.245l-.797-2.39-.797 2.39h-1.245l-1.411-4.25h1.245l.797 2.39.797-2.39h1.228l.797 2.39zm-7.703-2.39h1.245l-1.411 4.25h-1.245l-.797-2.39-.797 2.39h-1.245l-1.411-4.25h1.245l.797 2.39.797-2.39h1.228l.797 2.39.797-2.39zm-8.5 0h1.245l-1.411 4.25h-1.245l-.797-2.39-.797 2.39h-1.245l-1.411-4.25h1.245l.797 2.39.797-2.39h1.228l.797 2.39.797-2.39z"/>
    </g>
</svg>
