<svg xmlns="http://www.w3.org/2000/svg" width="67" height="51" viewBox="0 0 67 51">
    <defs>
        <filter id="lefu4uxf9a">
            <feColorMatrix in="SourceGraphic" values="0 0 0 0 0.098039 0 0 0 0 0.098039 0 0 0 0 0.098039 0 0 0 1.000000 0"/>
        </filter>
    </defs>
    <g fill="none" fill-rule="evenodd" filter="url(#lefu4uxf9a)" transform="translate(-809 -621)">
        <g fill="#000" fill-rule="nonzero" transform="translate(809 621)">
            <circle cx="33.5" cy="46.5" r="4.5"/>
            <path d="M33.5 29.738c-4.344 0-8.584 1.503-11.936 4.234-.492.4-.564 1.121-.157 1.608.406.49 1.132.563 1.626.156 2.939-2.393 6.656-3.71 10.466-3.71 3.81 0 7.53 1.317 10.466 3.71.215.176.474.26.732.26.333 0 .664-.143.892-.418.407-.487.338-1.208-.157-1.608-3.348-2.729-7.587-4.232-11.933-4.232zm0-13.725c-8.383 0-16.42 3.11-22.633 8.763-.471.428-.501 1.151-.07 1.618.435.469 1.163.496 1.634.068C18.214 21.2 25.697 18.3 33.499 18.3c7.802 0 15.285 2.899 21.07 8.16.222.201.502.302.782.302.311 0 .623-.124.85-.37.432-.467.402-1.19-.07-1.618-6.212-5.65-14.248-8.761-22.632-8.761zm33.141-2.839C57.621 4.678 45.853 0 33.5 0 21.14 0 9.372 4.662.36 13.128c-.462.435-.48 1.16-.044 1.618.44.46 1.172.478 1.634.043 8.58-8.064 19.786-12.501 31.55-12.501 11.758 0 22.96 4.456 31.548 12.544.224.21.51.316.797.316.305 0 .61-.119.837-.354.44-.46.422-1.183-.04-1.62z"/>
        </g>
    </g>
</svg>
